<svg width="932" height="430" viewBox="0 0 932 430" fill="none" xmlns="http://www.w3.org/2000/svg">
<rect width="932" height="430" fill="white"/>
<path d="M611.5 320.5L321.5 322L353 290.5H417.5L467.5 236L516 290.5H581L611.5 320.5Z" stroke="black" stroke-width="3"/>
<g filter="url(#filter0_d_15_5)">
<circle cx="466.5" cy="295.5" r="20" stroke="black" shape-rendering="crispEdges"/>
</g>
<g clip-path="url(#clip0_15_5)">
<path d="M557.579 242.174C555.527 243.119 554.137 244.829 553.704 246.835C551.898 245.86 549.695 245.805 547.644 246.749C546.012 247.503 544.745 248.874 544.122 250.56C543.499 252.247 543.571 254.112 544.321 255.745C547.523 262.7 560.427 263.58 560.973 263.611C561.117 263.62 561.262 263.593 561.393 263.532C561.525 263.472 561.639 263.379 561.726 263.264C562.058 262.829 569.777 252.452 566.575 245.497C565.821 243.865 564.45 242.599 562.764 241.976C561.077 241.353 559.212 241.424 557.579 242.174ZM560.608 261.828C558.307 261.606 548.367 260.347 545.91 255.013C545.354 253.801 545.301 252.418 545.763 251.167C546.226 249.915 547.165 248.898 548.376 248.339C550.308 247.449 552.404 247.731 553.843 249.072C553.97 249.191 554.13 249.268 554.301 249.296C554.472 249.323 554.648 249.299 554.805 249.227C554.963 249.154 555.095 249.036 555.186 248.888C555.276 248.74 555.321 248.569 555.314 248.395C555.229 246.427 556.378 244.654 558.311 243.764C559.523 243.208 560.906 243.155 562.157 243.617C563.409 244.079 564.426 245.019 564.985 246.229C567.438 251.555 561.933 259.935 560.608 261.828Z" fill="black"/>
</g>
<g clip-path="url(#clip1_15_5)">
<path d="M639.149 289.745C637.097 290.689 635.707 292.399 635.275 294.406C633.468 293.43 631.266 293.375 629.214 294.32C627.582 295.074 626.315 296.444 625.693 298.131C625.07 299.817 625.141 301.682 625.891 303.316C629.094 310.27 641.997 311.151 642.543 311.181C642.688 311.19 642.832 311.163 642.963 311.102C643.095 311.042 643.209 310.95 643.296 310.834C643.628 310.399 651.347 300.022 648.145 293.068C647.391 291.436 646.021 290.169 644.334 289.546C642.648 288.923 640.783 288.995 639.149 289.745ZM642.179 309.398C639.878 309.176 629.937 307.918 627.481 302.584C626.924 301.371 626.872 299.988 627.334 298.737C627.796 297.486 628.735 296.469 629.946 295.909C631.879 295.019 633.975 295.302 635.414 296.643C635.541 296.761 635.7 296.839 635.871 296.866C636.043 296.894 636.218 296.87 636.376 296.797C636.533 296.724 636.666 296.607 636.756 296.459C636.847 296.311 636.891 296.139 636.884 295.966C636.799 293.997 637.949 292.224 639.881 291.334C641.093 290.778 642.477 290.725 643.728 291.187C644.979 291.649 645.996 292.589 646.555 293.8C649.008 299.126 643.504 307.506 642.179 309.398Z" fill="black"/>
</g>
<g clip-path="url(#clip2_15_5)">
<path d="M310.149 275.745C308.097 276.689 306.707 278.399 306.275 280.406C304.468 279.43 302.266 279.375 300.214 280.32C298.582 281.074 297.315 282.444 296.693 284.131C296.07 285.817 296.141 287.682 296.891 289.316C300.094 296.27 312.997 297.151 313.543 297.181C313.688 297.19 313.832 297.163 313.963 297.102C314.095 297.042 314.209 296.95 314.296 296.834C314.628 296.399 322.347 286.022 319.145 279.068C318.391 277.436 317.021 276.169 315.334 275.546C313.648 274.923 311.783 274.995 310.149 275.745ZM313.179 295.398C310.878 295.176 300.937 293.918 298.481 288.584C297.924 287.371 297.872 285.988 298.334 284.737C298.796 283.486 299.735 282.469 300.946 281.909C302.879 281.019 304.975 281.302 306.414 282.643C306.541 282.761 306.7 282.839 306.871 282.866C307.043 282.894 307.218 282.87 307.376 282.797C307.533 282.724 307.666 282.607 307.756 282.459C307.847 282.311 307.891 282.139 307.884 281.966C307.799 279.997 308.949 278.224 310.881 277.334C312.093 276.778 313.477 276.725 314.728 277.187C315.979 277.649 316.996 278.589 317.555 279.8C320.008 285.126 314.504 293.506 313.179 295.398Z" fill="black"/>
</g>
<g clip-path="url(#clip3_15_5)">
<path d="M285.149 335.745C283.097 336.689 281.707 338.399 281.275 340.406C279.468 339.43 277.266 339.375 275.214 340.32C273.582 341.074 272.315 342.444 271.693 344.131C271.07 345.817 271.141 347.682 271.891 349.316C275.094 356.27 287.997 357.151 288.543 357.181C288.688 357.19 288.832 357.163 288.963 357.102C289.095 357.042 289.209 356.95 289.296 356.834C289.628 356.399 297.347 346.022 294.145 339.068C293.391 337.436 292.021 336.169 290.334 335.546C288.648 334.923 286.783 334.995 285.149 335.745ZM288.179 355.398C285.878 355.176 275.937 353.918 273.481 348.584C272.924 347.371 272.872 345.988 273.334 344.737C273.796 343.486 274.735 342.469 275.946 341.909C277.879 341.019 279.975 341.302 281.414 342.643C281.541 342.761 281.7 342.839 281.871 342.866C282.043 342.894 282.218 342.87 282.376 342.797C282.533 342.724 282.666 342.607 282.756 342.459C282.847 342.311 282.891 342.139 282.884 341.966C282.799 339.997 283.949 338.224 285.881 337.334C287.093 336.778 288.477 336.725 289.728 337.187C290.979 337.649 291.996 338.589 292.555 339.8C295.008 345.126 289.504 353.506 288.179 355.398Z" fill="black"/>
</g>
<g clip-path="url(#clip4_15_5)">
<path d="M661.149 342.745C659.097 343.689 657.707 345.399 657.275 347.406C655.468 346.43 653.266 346.375 651.214 347.32C649.582 348.074 648.315 349.444 647.693 351.131C647.07 352.817 647.141 354.682 647.891 356.316C651.094 363.27 663.997 364.151 664.543 364.181C664.688 364.19 664.832 364.163 664.963 364.102C665.095 364.042 665.209 363.95 665.296 363.834C665.628 363.399 673.347 353.022 670.145 346.068C669.391 344.436 668.021 343.169 666.334 342.546C664.648 341.923 662.783 341.995 661.149 342.745ZM664.179 362.398C661.878 362.176 651.937 360.918 649.481 355.584C648.924 354.371 648.872 352.988 649.334 351.737C649.796 350.486 650.735 349.469 651.946 348.909C653.879 348.019 655.975 348.302 657.414 349.643C657.541 349.761 657.7 349.839 657.871 349.866C658.043 349.894 658.218 349.87 658.376 349.797C658.533 349.724 658.666 349.607 658.756 349.459C658.847 349.311 658.891 349.139 658.884 348.966C658.799 346.997 659.949 345.224 661.881 344.334C663.093 343.778 664.477 343.725 665.728 344.187C666.979 344.649 667.996 345.589 668.555 346.8C671.008 352.126 665.504 360.506 664.179 362.398Z" fill="black"/>
</g>
<g clip-path="url(#clip5_15_5)">
<path d="M397.149 233.745C395.097 234.689 393.707 236.399 393.275 238.406C391.468 237.43 389.266 237.375 387.214 238.32C385.582 239.074 384.315 240.444 383.693 242.131C383.07 243.817 383.141 245.682 383.891 247.316C387.094 254.27 399.997 255.151 400.543 255.181C400.688 255.19 400.832 255.163 400.963 255.102C401.095 255.042 401.209 254.95 401.296 254.834C401.628 254.399 409.347 244.022 406.145 237.068C405.391 235.436 404.021 234.169 402.334 233.546C400.648 232.923 398.783 232.995 397.149 233.745ZM400.179 253.398C397.878 253.176 387.937 251.918 385.481 246.584C384.924 245.371 384.872 243.988 385.334 242.737C385.796 241.486 386.735 240.469 387.946 239.909C389.879 239.019 391.975 239.302 393.414 240.643C393.541 240.761 393.7 240.839 393.871 240.866C394.043 240.894 394.218 240.87 394.376 240.797C394.533 240.724 394.666 240.607 394.756 240.459C394.847 240.311 394.891 240.139 394.884 239.966C394.799 237.997 395.949 236.224 397.881 235.334C399.093 234.778 400.477 234.725 401.728 235.187C402.979 235.649 403.996 236.589 404.555 237.8C407.008 243.126 401.504 251.506 400.179 253.398Z" fill="black"/>
</g>
<g clip-path="url(#clip6_15_5)">
<path d="M469.149 190.745C467.097 191.689 465.707 193.399 465.275 195.406C463.468 194.43 461.266 194.375 459.214 195.32C457.582 196.074 456.315 197.444 455.693 199.131C455.07 200.817 455.141 202.682 455.891 204.316C459.094 211.27 471.997 212.151 472.543 212.181C472.688 212.19 472.832 212.163 472.963 212.102C473.095 212.042 473.209 211.95 473.296 211.834C473.628 211.399 481.347 201.022 478.145 194.068C477.391 192.436 476.021 191.169 474.334 190.546C472.648 189.923 470.783 189.995 469.149 190.745ZM472.179 210.398C469.878 210.176 459.937 208.918 457.481 203.584C456.924 202.371 456.872 200.988 457.334 199.737C457.796 198.486 458.735 197.469 459.946 196.909C461.879 196.019 463.975 196.302 465.414 197.643C465.541 197.761 465.7 197.839 465.871 197.866C466.043 197.894 466.218 197.87 466.376 197.797C466.533 197.724 466.666 197.607 466.756 197.459C466.847 197.311 466.891 197.139 466.884 196.966C466.799 194.997 467.949 193.224 469.881 192.334C471.093 191.778 472.477 191.725 473.728 192.187C474.979 192.649 475.996 193.589 476.555 194.8C479.008 200.126 473.504 208.506 472.179 210.398Z" fill="black"/>
</g>
<path d="M743.148 121.25C737.172 121.25 732.083 119.618 727.882 116.353C723.685 113.088 721.586 109.116 721.586 104.439C721.586 100.141 723.463 96.3263 727.216 92.9938C730.97 89.6638 735.635 87.8762 741.213 87.6312C742.289 82.1687 745.5 77.6563 750.844 74.0938C756.188 70.5313 762.408 68.75 769.503 68.75C777.495 68.75 784.285 70.9363 789.872 75.3088C795.459 79.6838 798.253 84.9975 798.253 91.25V95H801.199C805.79 95.115 809.641 96.4338 812.752 98.9563C815.864 101.476 817.419 104.532 817.419 108.125C817.419 111.802 815.8 114.91 812.561 117.448C809.315 119.983 805.344 121.25 800.648 121.25H743.148ZM743.148 117.5H800.648C804.003 117.5 806.838 116.594 809.154 114.781C811.47 112.969 812.628 110.75 812.628 108.125C812.628 105.5 811.47 103.281 809.154 101.469C806.838 99.6563 804.003 98.75 800.648 98.75H793.461V91.25C793.461 86.0625 791.124 81.64 786.451 77.9825C781.777 74.325 776.128 72.4975 769.503 72.5C762.874 72.5 757.225 74.3287 752.554 77.9862C747.884 81.6437 745.547 86.065 745.544 91.25H743.148C738.516 91.25 734.563 92.5312 731.289 95.0937C728.015 97.6562 726.378 100.75 726.378 104.375C726.378 108 728.015 111.094 731.289 113.656C734.563 116.219 738.516 117.5 743.148 117.5Z" fill="black"/>
<path d="M539.148 121.25C533.172 121.25 528.083 119.618 523.882 116.353C519.685 113.088 517.586 109.116 517.586 104.439C517.586 100.141 519.463 96.3263 523.216 92.9938C526.97 89.6638 531.635 87.8762 537.213 87.6312C538.289 82.1687 541.5 77.6563 546.844 74.0938C552.188 70.5313 558.408 68.75 565.503 68.75C573.495 68.75 580.285 70.9363 585.872 75.3088C591.459 79.6838 594.253 84.9975 594.253 91.25V95H597.199C601.79 95.115 605.641 96.4338 608.752 98.9563C611.864 101.476 613.419 104.532 613.419 108.125C613.419 111.802 611.8 114.91 608.561 117.448C605.315 119.983 601.344 121.25 596.648 121.25H539.148ZM539.148 117.5H596.648C600.003 117.5 602.838 116.594 605.154 114.781C607.47 112.969 608.628 110.75 608.628 108.125C608.628 105.5 607.47 103.281 605.154 101.469C602.838 99.6563 600.003 98.75 596.648 98.75H589.461V91.25C589.461 86.0625 587.124 81.64 582.451 77.9825C577.777 74.325 572.128 72.4975 565.503 72.5C558.874 72.5 553.225 74.3287 548.554 77.9862C543.884 81.6437 541.547 86.065 541.544 91.25H539.148C534.516 91.25 530.563 92.5312 527.289 95.0937C524.015 97.6562 522.378 100.75 522.378 104.375C522.378 108 524.015 111.094 527.289 113.656C530.563 116.219 534.516 117.5 539.148 117.5Z" fill="black"/>
<path d="M328.148 116.25C322.172 116.25 317.083 114.618 312.882 111.353C308.685 108.088 306.586 104.116 306.586 99.4388C306.586 95.1413 308.463 91.3263 312.216 87.9938C315.97 84.6638 320.635 82.8762 326.213 82.6312C327.289 77.1687 330.5 72.6563 335.844 69.0938C341.188 65.5313 347.408 63.75 354.503 63.75C362.495 63.75 369.285 65.9363 374.872 70.3088C380.459 74.6838 383.253 79.9975 383.253 86.25V90H386.199C390.79 90.115 394.641 91.4338 397.752 93.9563C400.864 96.4763 402.419 99.5325 402.419 103.125C402.419 106.802 400.8 109.91 397.561 112.448C394.315 114.983 390.344 116.25 385.648 116.25H328.148ZM328.148 112.5H385.648C389.003 112.5 391.838 111.594 394.154 109.781C396.47 107.969 397.628 105.75 397.628 103.125C397.628 100.5 396.47 98.2813 394.154 96.4688C391.838 94.6563 389.003 93.75 385.648 93.75H378.461V86.25C378.461 81.0625 376.124 76.64 371.451 72.9825C366.777 69.325 361.128 67.4975 354.503 67.5C347.874 67.5 342.225 69.3287 337.554 72.9862C332.884 76.6437 330.547 81.065 330.544 86.25H328.148C323.516 86.25 319.563 87.5312 316.289 90.0937C313.015 92.6562 311.378 95.75 311.378 99.375C311.378 103 313.015 106.094 316.289 108.656C319.563 111.219 323.516 112.5 328.148 112.5Z" fill="black"/>
<path d="M124.148 135.25C118.172 135.25 113.083 133.618 108.882 130.353C104.685 127.088 102.586 123.116 102.586 118.439C102.586 114.141 104.463 110.326 108.216 106.994C111.97 103.664 116.635 101.876 122.213 101.631C123.289 96.1687 126.5 91.6563 131.844 88.0938C137.188 84.5313 143.408 82.75 150.503 82.75C158.495 82.75 165.285 84.9363 170.872 89.3088C176.459 93.6838 179.253 98.9975 179.253 105.25V109H182.199C186.79 109.115 190.641 110.434 193.752 112.956C196.864 115.476 198.419 118.532 198.419 122.125C198.419 125.802 196.8 128.91 193.561 131.448C190.315 133.983 186.344 135.25 181.648 135.25H124.148ZM124.148 131.5H181.648C185.003 131.5 187.838 130.594 190.154 128.781C192.47 126.969 193.628 124.75 193.628 122.125C193.628 119.5 192.47 117.281 190.154 115.469C187.838 113.656 185.003 112.75 181.648 112.75H174.461V105.25C174.461 100.063 172.124 95.64 167.451 91.9825C162.777 88.325 157.128 86.4975 150.503 86.5C143.874 86.5 138.225 88.3287 133.554 91.9862C128.884 95.6437 126.547 100.065 126.544 105.25H124.148C119.516 105.25 115.563 106.531 112.289 109.094C109.015 111.656 107.378 114.75 107.378 118.375C107.378 122 109.015 125.094 112.289 127.656C115.563 130.219 119.516 131.5 124.148 131.5Z" fill="black"/>
<line x1="353.293" y1="320.293" x2="383.293" y2="290.293" stroke="#0D0A0A" stroke-width="2"/>
<line x1="387.206" y1="320.392" x2="410.206" y2="290.392" stroke="#090808" stroke-width="2"/>
<line x1="522.836" y1="291.452" x2="541.836" y2="320.452" stroke="#0A0808" stroke-width="2"/>
<line x1="553.756" y1="291.345" x2="579.756" y2="321.345" stroke="black" stroke-width="2"/>
<line x1="428" y1="321" x2="428" y2="291" stroke="#080808" stroke-width="2"/>
<line x1="506" y1="289" x2="506" y2="321" stroke="black" stroke-width="2"/>
<line x1="427.251" y1="290.338" x2="465.251" y2="247.338" stroke="black" stroke-width="2"/>
<line x1="466.732" y1="247.318" x2="507.732" y2="291.318" stroke="#080808" stroke-width="2"/>
<line x1="411" y1="321" x2="411" y2="343" stroke="#080808" stroke-width="2"/>
<line x1="410" y1="342" x2="520" y2="342" stroke="#0B0A0A" stroke-width="2"/>
<line x1="519" y1="322" x2="519" y2="341" stroke="black" stroke-width="2"/>
<line x1="419" y1="342" x2="419" y2="399" stroke="black" stroke-width="2"/>
<line x1="503" y1="341.982" x2="504" y2="398.982" stroke="black" stroke-width="2"/>
<path d="M440.057 336V327.273H445.29V328.21H441.114V331.159H444.898V332.097H441.114V336H440.057ZM450.678 333.324V329.455H451.684V336H450.678V334.892H450.61C450.457 335.224 450.218 335.507 449.894 335.74C449.57 335.97 449.161 336.085 448.667 336.085C448.258 336.085 447.894 335.996 447.576 335.817C447.258 335.635 447.008 335.362 446.826 334.999C446.644 334.632 446.553 334.17 446.553 333.614V329.455H447.559V333.545C447.559 334.023 447.692 334.403 447.96 334.688C448.229 334.972 448.573 335.114 448.991 335.114C449.241 335.114 449.495 335.05 449.754 334.922C450.015 334.794 450.234 334.598 450.41 334.334C450.589 334.07 450.678 333.733 450.678 333.324ZM454.532 332.062V336H453.526V329.455H454.498V330.477H454.583C454.736 330.145 454.969 329.878 455.282 329.676C455.594 329.472 455.998 329.369 456.492 329.369C456.935 329.369 457.323 329.46 457.655 329.642C457.988 329.821 458.246 330.094 458.431 330.46C458.615 330.824 458.708 331.284 458.708 331.841V336H457.702V331.909C457.702 331.395 457.569 330.994 457.301 330.707C457.034 330.418 456.668 330.273 456.202 330.273C455.881 330.273 455.594 330.342 455.341 330.482C455.091 330.621 454.894 330.824 454.749 331.091C454.604 331.358 454.532 331.682 454.532 332.062ZM463.017 336.136C462.472 336.136 461.99 335.999 461.572 335.723C461.155 335.445 460.828 335.053 460.592 334.547C460.357 334.038 460.239 333.438 460.239 332.744C460.239 332.057 460.357 331.46 460.592 330.955C460.828 330.449 461.156 330.058 461.577 329.783C461.997 329.507 462.483 329.369 463.034 329.369C463.46 329.369 463.797 329.44 464.044 329.582C464.294 329.722 464.484 329.881 464.615 330.06C464.749 330.236 464.852 330.381 464.926 330.494H465.011V327.273H466.017V336H465.045V334.994H464.926C464.852 335.114 464.747 335.264 464.611 335.446C464.474 335.625 464.28 335.786 464.027 335.928C463.774 336.067 463.438 336.136 463.017 336.136ZM463.153 335.233C463.557 335.233 463.898 335.128 464.176 334.918C464.455 334.705 464.666 334.411 464.811 334.036C464.956 333.658 465.028 333.222 465.028 332.727C465.028 332.239 464.957 331.811 464.815 331.445C464.673 331.075 464.463 330.788 464.185 330.584C463.906 330.376 463.563 330.273 463.153 330.273C462.727 330.273 462.372 330.382 462.088 330.601C461.807 330.817 461.595 331.111 461.453 331.483C461.314 331.852 461.244 332.267 461.244 332.727C461.244 333.193 461.315 333.616 461.457 333.997C461.602 334.375 461.815 334.676 462.097 334.901C462.381 335.122 462.733 335.233 463.153 335.233ZM469.925 336.153C469.51 336.153 469.134 336.075 468.795 335.919C468.457 335.76 468.189 335.531 467.99 335.233C467.791 334.932 467.692 334.568 467.692 334.142C467.692 333.767 467.766 333.463 467.913 333.23C468.061 332.994 468.259 332.81 468.506 332.676C468.753 332.543 469.026 332.443 469.324 332.378C469.625 332.31 469.928 332.256 470.232 332.216C470.629 332.165 470.952 332.126 471.199 332.101C471.449 332.072 471.631 332.026 471.744 331.96C471.861 331.895 471.919 331.781 471.919 331.619V331.585C471.919 331.165 471.804 330.838 471.574 330.605C471.347 330.372 471.001 330.256 470.538 330.256C470.058 330.256 469.682 330.361 469.409 330.571C469.136 330.781 468.945 331.006 468.834 331.244L467.879 330.903C468.05 330.506 468.277 330.196 468.561 329.974C468.848 329.75 469.161 329.594 469.499 329.506C469.839 329.415 470.175 329.369 470.504 329.369C470.714 329.369 470.956 329.395 471.229 329.446C471.504 329.494 471.77 329.595 472.026 329.749C472.284 329.902 472.499 330.134 472.669 330.443C472.839 330.753 472.925 331.168 472.925 331.688V336H471.919V335.114H471.868C471.8 335.256 471.686 335.408 471.527 335.57C471.368 335.732 471.156 335.869 470.892 335.983C470.628 336.097 470.305 336.153 469.925 336.153ZM470.078 335.25C470.476 335.25 470.811 335.172 471.084 335.016C471.359 334.859 471.567 334.658 471.706 334.411C471.848 334.163 471.919 333.903 471.919 333.631V332.71C471.876 332.761 471.783 332.808 471.638 332.851C471.496 332.891 471.331 332.926 471.143 332.957C470.959 332.986 470.778 333.011 470.602 333.034C470.429 333.054 470.288 333.071 470.18 333.085C469.919 333.119 469.675 333.175 469.447 333.251C469.223 333.325 469.041 333.437 468.902 333.588C468.766 333.736 468.697 333.937 468.697 334.193C468.697 334.543 468.827 334.807 469.085 334.986C469.347 335.162 469.678 335.25 470.078 335.25ZM477.419 336.136C476.806 336.136 476.277 335.991 475.834 335.702C475.391 335.412 475.05 335.013 474.811 334.504C474.573 333.996 474.453 333.415 474.453 332.761C474.453 332.097 474.576 331.51 474.82 331.001C475.067 330.49 475.411 330.091 475.851 329.804C476.294 329.514 476.811 329.369 477.402 329.369C477.863 329.369 478.277 329.455 478.647 329.625C479.016 329.795 479.319 330.034 479.554 330.341C479.79 330.648 479.936 331.006 479.993 331.415H478.988C478.911 331.116 478.74 330.852 478.476 330.622C478.215 330.389 477.863 330.273 477.419 330.273C477.027 330.273 476.684 330.375 476.388 330.58C476.096 330.781 475.867 331.067 475.702 331.436C475.54 331.803 475.459 332.233 475.459 332.727C475.459 333.233 475.539 333.673 475.698 334.048C475.86 334.423 476.087 334.714 476.38 334.922C476.675 335.129 477.022 335.233 477.419 335.233C477.681 335.233 477.918 335.188 478.131 335.097C478.344 335.006 478.525 334.875 478.672 334.705C478.82 334.534 478.925 334.33 478.988 334.091H479.993C479.936 334.477 479.796 334.825 479.571 335.135C479.35 335.442 479.056 335.686 478.689 335.868C478.326 336.047 477.902 336.136 477.419 336.136ZM476.942 335.966H477.777L477.709 336.307C477.931 336.341 478.134 336.433 478.319 336.584C478.503 336.737 478.596 336.98 478.596 337.312C478.596 337.679 478.444 337.977 478.14 338.207C477.838 338.44 477.394 338.557 476.806 338.557L476.772 337.892C477.036 337.892 477.255 337.849 477.428 337.764C477.604 337.682 477.692 337.543 477.692 337.347C477.692 337.151 477.62 337.017 477.475 336.946C477.33 336.875 477.096 336.827 476.772 336.801L476.942 335.966ZM483.39 336.153C482.975 336.153 482.598 336.075 482.26 335.919C481.922 335.76 481.654 335.531 481.455 335.233C481.256 334.932 481.157 334.568 481.157 334.142C481.157 333.767 481.23 333.463 481.378 333.23C481.526 332.994 481.723 332.81 481.971 332.676C482.218 332.543 482.49 332.443 482.789 332.378C483.09 332.31 483.392 332.256 483.696 332.216C484.094 332.165 484.417 332.126 484.664 332.101C484.914 332.072 485.096 332.026 485.209 331.96C485.326 331.895 485.384 331.781 485.384 331.619V331.585C485.384 331.165 485.269 330.838 485.039 330.605C484.811 330.372 484.466 330.256 484.003 330.256C483.523 330.256 483.147 330.361 482.874 330.571C482.601 330.781 482.409 331.006 482.299 331.244L481.344 330.903C481.515 330.506 481.742 330.196 482.026 329.974C482.313 329.75 482.625 329.594 482.963 329.506C483.304 329.415 483.64 329.369 483.969 329.369C484.179 329.369 484.421 329.395 484.694 329.446C484.969 329.494 485.235 329.595 485.49 329.749C485.749 329.902 485.963 330.134 486.134 330.443C486.304 330.753 486.39 331.168 486.39 331.688V336H485.384V335.114H485.333C485.265 335.256 485.151 335.408 484.992 335.57C484.833 335.732 484.621 335.869 484.357 335.983C484.093 336.097 483.77 336.153 483.39 336.153ZM483.543 335.25C483.941 335.25 484.276 335.172 484.549 335.016C484.824 334.859 485.032 334.658 485.171 334.411C485.313 334.163 485.384 333.903 485.384 333.631V332.71C485.341 332.761 485.248 332.808 485.103 332.851C484.961 332.891 484.796 332.926 484.608 332.957C484.424 332.986 484.243 333.011 484.067 333.034C483.894 333.054 483.753 333.071 483.645 333.085C483.384 333.119 483.14 333.175 482.912 333.251C482.688 333.325 482.506 333.437 482.367 333.588C482.23 333.736 482.162 333.937 482.162 334.193C482.162 334.543 482.292 334.807 482.55 334.986C482.811 335.162 483.142 335.25 483.543 335.25ZM482.725 328.67L481.941 328.636C481.941 328.202 482.064 327.847 482.311 327.571C482.561 327.293 482.87 327.153 483.236 327.153C483.398 327.153 483.542 327.182 483.667 327.239C483.792 327.293 483.911 327.355 484.025 327.426C484.138 327.497 484.255 327.561 484.374 327.618C484.496 327.672 484.634 327.699 484.787 327.699C484.949 327.699 485.086 327.636 485.196 327.511C485.31 327.384 485.367 327.23 485.367 327.051L486.134 327.119C486.134 327.562 486.009 327.915 485.759 328.176C485.512 328.437 485.205 328.568 484.838 328.568C484.642 328.568 484.48 328.541 484.353 328.487C484.225 328.43 484.111 328.366 484.012 328.295C483.912 328.224 483.807 328.162 483.696 328.108C483.586 328.051 483.449 328.023 483.287 328.023C483.125 328.023 482.99 328.087 482.882 328.214C482.777 328.339 482.725 328.491 482.725 328.67ZM490.884 336.136C490.293 336.136 489.775 335.996 489.329 335.714C488.886 335.433 488.539 335.04 488.289 334.534C488.042 334.028 487.918 333.437 487.918 332.761C487.918 332.08 488.042 331.484 488.289 330.976C488.539 330.467 488.886 330.072 489.329 329.791C489.775 329.51 490.293 329.369 490.884 329.369C491.475 329.369 491.992 329.51 492.435 329.791C492.881 330.072 493.228 330.467 493.475 330.976C493.725 331.484 493.85 332.08 493.85 332.761C493.85 333.437 493.725 334.028 493.475 334.534C493.228 335.04 492.881 335.433 492.435 335.714C491.992 335.996 491.475 336.136 490.884 336.136ZM490.884 335.233C491.333 335.233 491.702 335.118 491.992 334.888C492.282 334.658 492.496 334.355 492.636 333.98C492.775 333.605 492.844 333.199 492.844 332.761C492.844 332.324 492.775 331.916 492.636 331.538C492.496 331.161 492.282 330.855 491.992 330.622C491.702 330.389 491.333 330.273 490.884 330.273C490.435 330.273 490.066 330.389 489.776 330.622C489.487 330.855 489.272 331.161 489.133 331.538C488.994 331.916 488.924 332.324 488.924 332.761C488.924 333.199 488.994 333.605 489.133 333.98C489.272 334.355 489.487 334.658 489.776 334.888C490.066 335.118 490.435 335.233 490.884 335.233Z" fill="black"/>
<line x1="336" y1="322.988" x2="337.012" y2="404.988" stroke="#070707" stroke-width="2"/>
<line x1="336" y1="322.988" x2="337.012" y2="404.988" stroke="#070707" stroke-width="2"/>
<line x1="596" y1="320.988" x2="597.012" y2="402.988" stroke="#070707" stroke-width="2"/>
<line x1="596" y1="320.988" x2="597.012" y2="402.988" stroke="#070707" stroke-width="2"/>
<line x1="443" y1="369" x2="443" y2="398" stroke="black" stroke-width="2"/>
<line x1="461" y1="368" x2="461" y2="399" stroke="black" stroke-width="2"/>
<path d="M478 368.5V397.5" stroke="black" stroke-width="2"/>
<line x1="417.988" y1="399" x2="502.988" y2="398" stroke="black" stroke-width="2"/>
<line x1="442" y1="367" x2="478" y2="367" stroke="#070707" stroke-width="2"/>
<line x1="377.999" y1="338.053" x2="376.999" y2="357.053" stroke="black" stroke-width="2"/>
<line x1="377" y1="337.5" x2="392" y2="337.5" stroke="white"/>
<line x1="393" y1="338" x2="393" y2="357" stroke="black" stroke-width="2"/>
<line x1="376" y1="356" x2="392" y2="356" stroke="#0A0A0A" stroke-width="2"/>
<line x1="378" y1="338" x2="394" y2="338" stroke="#0A0A0A" stroke-width="2"/>
<line x1="346.999" y1="339.053" x2="345.999" y2="358.053" stroke="black" stroke-width="2"/>
<line x1="346" y1="338.5" x2="361" y2="338.5" stroke="white"/>
<line x1="362" y1="339" x2="362" y2="358" stroke="black" stroke-width="2"/>
<line x1="345" y1="357" x2="361" y2="357" stroke="#0A0A0A" stroke-width="2"/>
<line x1="347" y1="339" x2="363" y2="339" stroke="#0A0A0A" stroke-width="2"/>
<line x1="344.999" y1="381.053" x2="343.999" y2="400.053" stroke="black" stroke-width="2"/>
<line x1="344" y1="380.5" x2="359" y2="380.5" stroke="white"/>
<line x1="360" y1="381" x2="360" y2="400" stroke="black" stroke-width="2"/>
<line x1="343" y1="399" x2="359" y2="399" stroke="#0A0A0A" stroke-width="2"/>
<line x1="345" y1="381" x2="361" y2="381" stroke="#0A0A0A" stroke-width="2"/>
<line x1="373.999" y1="380.053" x2="372.999" y2="399.053" stroke="black" stroke-width="2"/>
<line x1="373" y1="379.5" x2="388" y2="379.5" stroke="white"/>
<line x1="389" y1="380" x2="389" y2="399" stroke="black" stroke-width="2"/>
<line x1="372" y1="398" x2="388" y2="398" stroke="#0A0A0A" stroke-width="2"/>
<line x1="374" y1="380" x2="390" y2="380" stroke="#0A0A0A" stroke-width="2"/>
<line x1="539.999" y1="334.053" x2="538.999" y2="353.053" stroke="black" stroke-width="2"/>
<line x1="539" y1="333.5" x2="554" y2="333.5" stroke="white"/>
<line x1="555" y1="334" x2="555" y2="353" stroke="black" stroke-width="2"/>
<line x1="538" y1="352" x2="554" y2="352" stroke="#0A0A0A" stroke-width="2"/>
<line x1="540" y1="334" x2="556" y2="334" stroke="#0A0A0A" stroke-width="2"/>
<line x1="568.999" y1="334.053" x2="567.999" y2="353.053" stroke="black" stroke-width="2"/>
<line x1="568" y1="333.5" x2="583" y2="333.5" stroke="white"/>
<line x1="584" y1="334" x2="584" y2="353" stroke="black" stroke-width="2"/>
<line x1="567" y1="352" x2="583" y2="352" stroke="#0A0A0A" stroke-width="2"/>
<line x1="569" y1="334" x2="585" y2="334" stroke="#0A0A0A" stroke-width="2"/>
<line x1="569.999" y1="375.053" x2="568.999" y2="394.053" stroke="black" stroke-width="2"/>
<line x1="569" y1="374.5" x2="584" y2="374.5" stroke="white"/>
<line x1="585" y1="375" x2="585" y2="394" stroke="black" stroke-width="2"/>
<line x1="568" y1="393" x2="584" y2="393" stroke="#0A0A0A" stroke-width="2"/>
<line x1="570" y1="375" x2="586" y2="375" stroke="#0A0A0A" stroke-width="2"/>
<line x1="538.999" y1="375.053" x2="537.999" y2="394.053" stroke="black" stroke-width="2"/>
<line x1="538" y1="374.5" x2="553" y2="374.5" stroke="white"/>
<line x1="554" y1="375" x2="554" y2="394" stroke="black" stroke-width="2"/>
<line x1="537" y1="393" x2="553" y2="393" stroke="#0A0A0A" stroke-width="2"/>
<line x1="539" y1="375" x2="555" y2="375" stroke="#0A0A0A" stroke-width="2"/>
<path d="M337 404H597" stroke="#0F0E0E" stroke-width="2"/>
<defs>
<filter id="filter0_d_15_5" x="442" y="275" width="49" height="49" filterUnits="userSpaceOnUse" color-interpolation-filters="sRGB">
<feFlood flood-opacity="0" result="BackgroundImageFix"/>
<feColorMatrix in="SourceAlpha" type="matrix" values="0 0 0 0 0 0 0 0 0 0 0 0 0 0 0 0 0 0 127 0" result="hardAlpha"/>
<feOffset dy="4"/>
<feGaussianBlur stdDeviation="2"/>
<feComposite in2="hardAlpha" operator="out"/>
<feColorMatrix type="matrix" values="0 0 0 0 0 0 0 0 0 0 0 0 0 0 0 0 0 0 0.25 0"/>
<feBlend mode="normal" in2="BackgroundImageFix" result="effect1_dropShadow_15_5"/>
<feBlend mode="normal" in="SourceGraphic" in2="effect1_dropShadow_15_5" result="shape"/>
</filter>
<clipPath id="clip0_15_5">
<rect width="28" height="28" fill="white" transform="translate(538.43 247.141) rotate(-24.7264)"/>
</clipPath>
<clipPath id="clip1_15_5">
<rect width="28" height="28" fill="white" transform="translate(620 294.711) rotate(-24.7264)"/>
</clipPath>
<clipPath id="clip2_15_5">
<rect width="28" height="28" fill="white" transform="translate(291 280.711) rotate(-24.7264)"/>
</clipPath>
<clipPath id="clip3_15_5">
<rect width="28" height="28" fill="white" transform="translate(266 340.711) rotate(-24.7264)"/>
</clipPath>
<clipPath id="clip4_15_5">
<rect width="28" height="28" fill="white" transform="translate(642 347.711) rotate(-24.7264)"/>
</clipPath>
<clipPath id="clip5_15_5">
<rect width="28" height="28" fill="white" transform="translate(378 238.711) rotate(-24.7264)"/>
</clipPath>
<clipPath id="clip6_15_5">
<rect width="28" height="28" fill="white" transform="translate(450 195.711) rotate(-24.7264)"/>
</clipPath>
</defs>
</svg>
